<svg width="20" height="20" viewBox="0 0 20 20" fill="none" xmlns="http://www.w3.org/2000/svg">
<path d="M3.75 19.1666C3.00832 19.1666 2.2833 18.9467 1.66661 18.5347C1.04993 18.1226 0.569282 17.5369 0.285453 16.8517C0.00162482 16.1665 -0.0726377 15.4125 0.0720569 14.6851C0.216751 13.9576 0.573904 13.2894 1.09835 12.765C1.6228 12.2406 2.29098 11.8834 3.01841 11.7387C3.74584 11.594 4.49984 11.6683 5.18506 11.9521C5.87029 12.2359 6.45596 12.7166 6.86801 13.3333C7.28007 13.9499 7.5 14.675 7.5 15.4166C7.4989 16.4109 7.10346 17.3641 6.40043 18.0671C5.69741 18.7701 4.74423 19.1655 3.75 19.1666ZM3.75 14.1666C3.50278 14.1666 3.2611 14.24 3.05554 14.3773C2.84998 14.5147 2.68976 14.7099 2.59515 14.9383C2.50054 15.1667 2.47579 15.418 2.52402 15.6605C2.57225 15.903 2.6913 16.1257 2.86612 16.3005C3.04093 16.4753 3.26366 16.5944 3.50614 16.6426C3.74862 16.6909 3.99995 16.6661 4.22836 16.5715C4.45676 16.4769 4.65199 16.3167 4.78934 16.1111C4.92669 15.9055 5 15.6639 5 15.4166C5 15.0851 4.86831 14.7672 4.63389 14.5328C4.39947 14.2983 4.08152 14.1666 3.75 14.1666ZM16.25 19.1666C15.5083 19.1666 14.7833 18.9467 14.1666 18.5347C13.5499 18.1226 13.0693 17.5369 12.7855 16.8517C12.5016 16.1665 12.4274 15.4125 12.5721 14.6851C12.7168 13.9576 13.0739 13.2894 13.5984 12.765C14.1228 12.2406 14.791 11.8834 15.5184 11.7387C16.2458 11.594 16.9998 11.6683 17.6851 11.9521C18.3703 12.2359 18.956 12.7166 19.368 13.3333C19.7801 13.9499 20 14.675 20 15.4166C19.9989 16.4109 19.6035 17.3641 18.9004 18.0671C18.1974 18.7701 17.2442 19.1655 16.25 19.1666ZM16.25 14.1666C16.0028 14.1666 15.7611 14.24 15.5555 14.3773C15.35 14.5147 15.1898 14.7099 15.0952 14.9383C15.0005 15.1667 14.9758 15.418 15.024 15.6605C15.0723 15.903 15.1913 16.1257 15.3661 16.3005C15.5409 16.4753 15.7637 16.5944 16.0061 16.6426C16.2486 16.6909 16.4999 16.6661 16.7284 16.5715C16.9568 16.4769 17.152 16.3167 17.2893 16.1111C17.4267 15.9055 17.5 15.6639 17.5 15.4166C17.5 15.0851 17.3683 14.7672 17.1339 14.5328C16.8995 14.2983 16.5815 14.1666 16.25 14.1666ZM11.25 16.25V12.5C11.2501 12.299 11.2017 12.101 11.1091 11.9227C11.0164 11.7445 10.882 11.5912 10.7175 11.4758L8.44833 9.88581C8.37527 9.8105 8.33408 9.70991 8.33333 9.60498C8.33244 9.54598 8.34409 9.48746 8.3675 9.4333C8.39092 9.37914 8.42557 9.33058 8.46917 9.29081C8.49667 9.26581 10.0383 7.58498 10.0383 7.58498C10.1188 7.52396 10.2186 7.49422 10.3193 7.50127C10.42 7.50832 10.5147 7.55169 10.5858 7.62331C10.6067 7.64415 12.9233 9.68748 12.9233 9.68748C13.1516 9.88883 13.4456 9.99995 13.75 9.99998H15.4167C15.7482 9.99998 16.0661 9.86828 16.3006 9.63386C16.535 9.39944 16.6667 9.0815 16.6667 8.74998C16.6667 8.41846 16.535 8.10052 16.3006 7.8661C16.0661 7.63168 15.7482 7.49998 15.4167 7.49998H14.2217L12.3333 5.83331C11.8022 5.30924 11.0898 5.00956 10.3438 4.99637C9.5977 4.98319 8.87516 5.2575 8.32584 5.76248C8.29834 5.78748 6.73834 7.48831 6.73834 7.48831C6.4436 7.7695 6.21104 8.10931 6.05562 8.48585C5.90021 8.86238 5.82539 9.2673 5.83599 9.67451C5.84659 10.0817 5.94237 10.4822 6.11716 10.8501C6.29195 11.2181 6.54187 11.5453 6.85083 11.8108C6.8825 11.8383 8.75167 13.15 8.75167 13.15V16.25C8.75167 16.5815 8.88336 16.8994 9.11778 17.1339C9.35221 17.3683 9.67015 17.5 10.0017 17.5C10.3332 17.5 10.6511 17.3683 10.8856 17.1339C11.12 16.8994 11.2517 16.5815 11.2517 16.25H11.25ZM13.75 0.833313C13.338 0.833313 12.9352 0.955498 12.5926 1.18442C12.25 1.41334 11.9829 1.73871 11.8253 2.11939C11.6676 2.50007 11.6263 2.91896 11.7067 3.32308C11.7871 3.72721 11.9855 4.09843 12.2769 4.38979C12.5682 4.68114 12.9394 4.87956 13.3436 4.95995C13.7477 5.04034 14.1666 4.99908 14.5473 4.8414C14.9279 4.68371 15.2533 4.41669 15.4822 4.07408C15.7112 3.73148 15.8333 3.32869 15.8333 2.91665C15.8333 2.36411 15.6138 1.83421 15.2231 1.44351C14.8324 1.05281 14.3025 0.833313 13.75 0.833313Z" fill="black"/>
</svg>
