<svg width="20" height="20" viewBox="0 0 20 20" fill="none" xmlns="http://www.w3.org/2000/svg">
<path d="M10 0C8.02219 0 6.08879 0.58649 4.4443 1.6853C2.79981 2.78412 1.51809 4.3459 0.761209 6.17317C0.00433286 8.00043 -0.193701 10.0111 0.192152 11.9509C0.578004 13.8907 1.53041 15.6725 2.92894 17.0711C4.32746 18.4696 6.10929 19.422 8.0491 19.8079C9.98891 20.1937 11.9996 19.9957 13.8268 19.2388C15.6541 18.4819 17.2159 17.2002 18.3147 15.5557C19.4135 13.9112 20 11.9778 20 10C19.9971 7.34872 18.9426 4.80684 17.0679 2.9321C15.1932 1.05736 12.6513 0.00286757 10 0V0ZM10 2.5C11.4799 2.50142 12.9264 2.94006 14.1579 3.76084C15.3893 4.58161 16.3509 5.74793 16.9217 7.11333L11.6867 8.16083C10.5341 8.39083 9.34753 8.39083 8.195 8.16083L3.06917 7.135C3.63735 5.76417 4.59886 4.59236 5.83237 3.76745C7.06587 2.94254 8.51609 2.50151 10 2.5ZM2.505 10.2558L5.13334 10.7817C5.61311 10.8776 6.06588 11.0781 6.45949 11.3687C6.8531 11.6593 7.1779 12.0331 7.41084 12.4633L7.93167 13.4242C8.19461 13.9105 8.33263 14.4546 8.33334 15.0075V17.31C6.72076 16.9399 5.27543 16.0479 4.22159 14.7724C3.16776 13.4969 2.56436 11.9093 2.505 10.2558ZM11.6667 17.3133V15.0108C11.6674 14.4579 11.8054 13.9139 12.0683 13.4275L12.5892 12.4667C12.8221 12.0364 13.1469 11.6627 13.5405 11.372C13.9341 11.0814 14.3869 10.881 14.8667 10.785L17.495 10.2592C17.4357 11.9126 16.8322 13.5002 15.7784 14.7757C14.7246 16.0512 13.2792 16.9432 11.6667 17.3133Z" fill="black"/>
</svg>
