<svg width="20" height="20" viewBox="0 0 20 20" fill="none" xmlns="http://www.w3.org/2000/svg">
<path d="M19.9998 11.25C19.9998 11.5236 19.946 11.7945 19.8413 12.0473C19.7366 12.3 19.5831 12.5297 19.3896 12.7232C19.1962 12.9166 18.9665 13.0701 18.7138 13.1748C18.461 13.2795 18.1901 13.3334 17.9165 13.3334H14.5532L11.0315 18.7392C10.8148 19.1237 10.4993 19.4433 10.1176 19.6649C9.73596 19.8866 9.30202 20.0023 8.86067 20C8.50656 20.0001 8.15769 19.9144 7.84397 19.7501C7.53024 19.5859 7.261 19.3481 7.05931 19.057C6.85762 18.7659 6.72949 18.4303 6.6859 18.0789C6.6423 17.7275 6.68455 17.3707 6.80901 17.0392L8.34901 13.3334H4.99984C4.41223 13.3334 3.83506 13.1781 3.3268 12.8832C2.81854 12.5883 2.39727 12.1643 2.10567 11.6542L0.166505 8.46669C0.0836473 8.3291 0.0291931 8.1763 0.00635694 8.01732C-0.0164792 7.85833 -0.00723448 7.69638 0.0335454 7.54103C0.0743253 7.38568 0.145814 7.24007 0.243792 7.1128C0.341769 6.98553 0.464251 6.87918 0.604005 6.80002C0.825781 6.68374 1.07887 6.64125 1.32646 6.67872C1.57405 6.71619 1.80323 6.83166 1.98067 7.00836L3.16151 8.19002C3.78648 8.81519 4.63419 9.1665 5.51817 9.16669H17.9165C18.1901 9.16669 18.461 9.22058 18.7138 9.32527C18.9665 9.42997 19.1962 9.58343 19.3896 9.77688C19.5831 9.97034 19.7366 10.2 19.8413 10.4528C19.946 10.7055 19.9998 10.9764 19.9998 11.25ZM14.7757 7.50002L11.0257 1.26086C10.8092 0.876698 10.4941 0.557297 10.1129 0.335645C9.73173 0.113994 9.29828 -0.00186979 8.85734 2.28202e-05C8.50329 0.000119227 8.15454 0.085987 7.84092 0.250279C7.5273 0.414571 7.25815 0.652397 7.05649 0.943406C6.85484 1.23442 6.7267 1.56995 6.68301 1.92129C6.63933 2.27263 6.68142 2.62933 6.80567 2.96086L8.57067 7.50002H14.7757Z" fill="black"/>
</svg>
