<svg width="20" height="18" viewBox="0 0 20 18" fill="none" xmlns="http://www.w3.org/2000/svg">
<path d="M19.1667 17.3334H0.833333C0.61232 17.3334 0.400358 17.2456 0.244078 17.0893C0.0877974 16.933 0 16.721 0 16.5C0 16.279 0.0877974 16.067 0.244078 15.9108C0.400358 15.7545 0.61232 15.6667 0.833333 15.6667H19.1667C19.3877 15.6667 19.5996 15.7545 19.7559 15.9108C19.9122 16.067 20 16.279 20 16.5C20 16.721 19.9122 16.933 19.7559 17.0893C19.5996 17.2456 19.3877 17.3334 19.1667 17.3334ZM10 0.74502V4.00002H16.8892C15.0246 2.17059 12.5973 1.02375 10 0.74502ZM5 0.666687V4.00002H8.33333V0.666687H5ZM18.2908 5.66669H0V12.3334C0 12.5544 0.0877974 12.7663 0.244078 12.9226C0.400358 13.0789 0.61232 13.1667 0.833333 13.1667H16.6583C17.1817 13.1676 17.6979 13.0453 18.1652 12.8096C18.6325 12.574 19.0377 12.2316 19.3481 11.8102C19.6585 11.3888 19.8652 10.9003 19.9517 10.3841C20.0382 9.86798 20.0019 9.33872 19.8458 8.83919C19.491 7.70912 18.9667 6.63944 18.2908 5.66669ZM3.33333 4.00002V0.666687H0.833333C0.61232 0.666687 0.400358 0.754484 0.244078 0.910765C0.0877974 1.06704 0 1.27901 0 1.50002L0 4.00002H3.33333Z" fill="black"/>
</svg>
