<svg width="20" height="20" viewBox="0 0 20 20" fill="none" xmlns="http://www.w3.org/2000/svg">
<g clip-path="url(#clip0_714_2322)">
<path d="M14.1368 4.60667C11.9635 3.49785 8.7629 3.91027 6.69196 5.56585C4.78966 7.08667 4.64384 9.83886 4.75208 12.3305L4.75376 12.3698C4.83735 14.2958 4.96368 17.2064 6.54001 18.769C7.23825 19.4611 8.33087 19.9186 9.46274 19.9927C9.53708 19.9976 9.61087 20 9.68415 20C10.49 20 11.2289 19.7075 11.7837 19.1641C12.392 18.5683 12.718 17.7128 12.678 16.8169C12.6656 16.5376 12.6166 16.2564 12.5283 15.9573C12.5283 15.9573 12.5283 15.9573 12.5283 15.9573C12.379 15.4516 12.1441 14.993 11.9168 14.5495C11.6262 13.9822 11.3517 13.4464 11.2927 12.8825C11.2147 12.1366 11.6331 11.4707 12.6092 10.787C12.6981 10.7247 12.7884 10.6623 12.8793 10.5994C13.9592 9.85257 15.183 9.00605 15.5182 7.53288C15.7891 6.34238 15.234 5.16644 14.1368 4.60667Z" fill="black"/>
<path d="M15.3516 4.375C16.5381 4.375 17.5 3.41311 17.5 2.22656C17.5 1.04001 16.5381 0.078125 15.3516 0.078125C14.165 0.078125 13.2031 1.04001 13.2031 2.22656C13.2031 3.41311 14.165 4.375 15.3516 4.375Z" fill="black"/>
<path d="M10.6641 3.125C11.527 3.125 12.2266 2.42544 12.2266 1.5625C12.2266 0.699555 11.527 0 10.6641 0C9.80112 0 9.10156 0.699555 9.10156 1.5625C9.10156 2.42544 9.80112 3.125 10.6641 3.125Z" fill="black"/>
<path d="M6.79688 3.90625C7.60589 3.90625 8.26172 3.25042 8.26172 2.44141C8.26172 1.6324 7.60589 0.976562 6.79688 0.976562C5.98786 0.976562 5.33203 1.6324 5.33203 2.44141C5.33203 3.25042 5.98786 3.90625 6.79688 3.90625Z" fill="black"/>
<path d="M3.86719 6.25C4.62226 6.25 5.23438 5.63789 5.23438 4.88281C5.23438 4.12774 4.62226 3.51562 3.86719 3.51562C3.11211 3.51562 2.5 4.12774 2.5 4.88281C2.5 5.63789 3.11211 6.25 3.86719 6.25Z" fill="black"/>
</g>
<defs>
<clipPath id="clip0_714_2322">
<rect width="20" height="20" fill="white"/>
</clipPath>
</defs>
</svg>
